<svg id="Layer_1" data-name="Layer 1" xmlns="http://www.w3.org/2000/svg" xmlns:xlink="http://www.w3.org/1999/xlink" viewBox="0 0 275.3 243.02"><defs><style>.cls-1{fill:#fff;}.cls-2{fill:url(#linear-gradient);}</style><linearGradient id="linear-gradient" x1="129.85" y1="139.49" x2="384.85" y2="139.49" gradientTransform="matrix(0.91, -0.41, 0.41, 0.91, -127.57, 117.09)" gradientUnits="userSpaceOnUse"><stop offset="0" stop-color="#1e9cd7"/><stop offset="0.88" stop-color="#93278f"/></linearGradient></defs><title>logo color moon</title><path class="cls-1" d="M280.1,48.33h18.34v6.52H271.35c0-2-.05-3.9,0-5.84,0-.44.45-.87.75-1.27L289.2,25.27H272V18.59h25.6c0,1.92.05,3.77,0,5.61a3,3,0,0,1-.78,1.42Q289,36.21,281.19,46.78C280.88,47.21,280.59,47.64,280.1,48.33Z" transform="translate(-31.27 -18.59)"/><path class="cls-1" d="M243.72,76.36h-13.2V71.45H250c0,2.06.52,4.08-1,6.07-4.12,5.34-8.05,10.83-12.23,16.51h13.94v5H230.1c0-2.34-.4-4.51,1.37-6.66,3.82-4.61,7.32-9.49,10.95-14.26C242.78,77.65,243.13,77.17,243.72,76.36Z" transform="translate(-31.27 -18.59)"/><path class="cls-1" d="M192.27,127.06h13.88a5.84,5.84,0,0,1-1.2,5.11c-2.77,3.5-5.33,7.17-8.13,11h9.84v3.6H192.05a5.83,5.83,0,0,1,1.08-4.91c2.9-3.53,5.58-7.24,8.58-11.19-2.56,0-4.79,0-7,0-2.77,0-2.47.57-2.49-2.62C192.2,127.73,192.24,127.44,192.27,127.06Z" transform="translate(-31.27 -18.59)"/><path class="cls-2" d="M226.71,249.2l-.26.12C173,273.42,109.94,261.37,70,219.4A139.3,139.3,0,0,1,40.09,74.13,132.3,132.3,0,0,1,51.3,51c1.38-2.28,3.31-3.16,5.56-2.55s3.48,2.3,3.54,5a133.92,133.92,0,0,0,13.7,56.68q23.28,47.34,72.26,67.11a133.08,133.08,0,0,0,87.4,4.87,134.48,134.48,0,0,0,64.56-39.89c.41-.45.79-.92,1.23-1.34a4,4,0,0,1,4.73-.77,3.89,3.89,0,0,1,2.26,4.08c-.18,1.6-.47,3.19-.8,4.77q-11.69,56.94-59.85,89.5c-6,4.05-12.61,6.94-18.9,10.58a2.11,2.11,0,0,1-.28.12Z" transform="translate(-31.27 -18.59)"/><text x="-31.27" y="-18.59"/><text x="-31.27" y="-18.59"/></svg>